<svg width="67" height="68" viewBox="0 0 67 68" fill="none" xmlns="http://www.w3.org/2000/svg">
<g filter="url(#filter0_d_136_3448)">
<mask id="path-1-inside-1_136_3448" fill="white">
<rect x="4" width="59" height="59.6211" rx="5"/>
</mask>
<rect x="4" width="59" height="59.6211" rx="5" fill="white"/>
<rect x="4" width="59" height="59.6211" rx="5" stroke="white" stroke-width="14" mask="url(#path-1-inside-1_136_3448)"/>
</g>
<path d="M48.8881 46.6038C47.795 46.6038 46.8676 46.256 46.1057 45.5604C45.377 44.8317 45.0127 43.9208 45.0127 42.8278C45.0127 41.7347 45.377 40.8239 46.1057 40.0952C46.8676 39.3333 47.795 38.9524 48.8881 38.9524C49.948 38.9524 50.8589 39.3333 51.6207 40.0952C52.4156 40.8239 52.8131 41.7347 52.8131 42.8278C52.8131 43.8877 52.4156 44.782 51.6207 45.5107C50.8589 46.2394 49.948 46.6038 48.8881 46.6038Z" fill="#FF4D4F"/>
<path d="M18.9053 15.3276C18.9053 13.8039 19.4352 12.6281 20.4952 11.8C21.1699 11.2729 22.0325 10.9135 23.0831 10.7219C24.1667 10.5243 25.0696 11.4486 25.0739 12.5501L25.1125 22.4565C25.1146 22.9896 24.8968 23.4955 24.5491 23.8997C23.9119 24.6404 23.3795 25.4609 22.6672 26.646C22.6441 26.6844 22.6323 26.7291 22.6337 26.7739C22.6406 26.9972 22.9305 27.088 23.0679 26.9118C25.4448 23.8619 29.5749 20.4947 32.9162 20.4947C34.6055 20.4947 36.096 20.8756 37.3878 21.6375C38.6796 22.3993 39.6733 23.4427 40.3689 24.7676C41.0976 26.0925 41.4619 27.583 41.4619 29.2392V42.4552C41.4619 43.7801 40.9485 44.7406 39.9217 45.3368C39.2542 45.7244 38.3628 45.986 37.2474 46.1216C36.1509 46.255 35.2514 45.3357 35.2514 44.2312V30.1335C35.2514 28.8748 34.8705 27.848 34.1086 27.0531C33.3799 26.2581 32.3034 25.8606 30.8792 25.8606C29.1899 25.8606 27.7987 26.3906 26.7057 27.4505C25.6126 28.4773 25.0661 29.7691 25.0661 31.3259V42.4552C25.0661 43.7801 24.5527 44.7406 23.5259 45.3368C22.8642 45.7211 21.9893 45.9815 20.9011 46.1181C19.8052 46.2557 18.9053 45.3357 18.9053 44.2312V15.3276Z" fill="#FF4D4F"/>
<defs>
<filter id="filter0_d_136_3448" x="0" y="0" width="67" height="67.621" filterUnits="userSpaceOnUse" color-interpolation-filters="sRGB">
<feFlood flood-opacity="0" result="BackgroundImageFix"/>
<feColorMatrix in="SourceAlpha" type="matrix" values="0 0 0 0 0 0 0 0 0 0 0 0 0 0 0 0 0 0 127 0" result="hardAlpha"/>
<feOffset dy="4"/>
<feGaussianBlur stdDeviation="2"/>
<feComposite in2="hardAlpha" operator="out"/>
<feColorMatrix type="matrix" values="0 0 0 0 0 0 0 0 0 0 0 0 0 0 0 0 0 0 0.25 0"/>
<feBlend mode="normal" in2="BackgroundImageFix" result="effect1_dropShadow_136_3448"/>
<feBlend mode="normal" in="SourceGraphic" in2="effect1_dropShadow_136_3448" result="shape"/>
</filter>
</defs>
</svg>
